<?xml version="1.0" encoding="UTF-8" standalone="no"?>
<svg
   xmlns:dc="http://purl.org/dc/elements/1.1/"
   xmlns:cc="http://creativecommons.org/ns#"
   xmlns:rdf="http://www.w3.org/1999/02/22-rdf-syntax-ns#"
   xmlns:svg="http://www.w3.org/2000/svg"
   xmlns="http://www.w3.org/2000/svg"
   height="198"
   width="198"
   xml:space="preserve"
   enable-background="new 0 0 753.9 198"
   viewBox="0 0 197.99999 198"
   y="0px"
   x="0px"
   id="Layer_1"
   version="1.1"><metadata
     id="metadata27"><rdf:RDF><cc:Work
         rdf:about=""><dc:format>image/svg+xml</dc:format><dc:type
           rdf:resource="http://purl.org/dc/dcmitype/StillImage" /><dc:title></dc:title></cc:Work></rdf:RDF></metadata><defs
     id="defs25" /><path
     style="fill:#f2c455"
     id="path2"
     d="M 115.4,1.4 C 110,0.5 104.6,0 99,0 44.3,0 0,44.3 0,99 c 0,21 6.6,40.4 17.7,56.5 6.8,-10 22.5,-16.9 40.7,-16.9 12.5,0 23.8,3.3 31.9,8.6 z M 168,28.1 c 17.1,37.8 2.1,58 2.1,58 -11.6,-34.9 -45.2,-40 -45.2,-40 0,0 -22.1,119.1 -22.1,120.6 0,12.9 -13.7,23.8 -32.3,27.1 9,2.7 18.6,4.2 28.5,4.2 54.7,0 99,-44.3 99,-99 0,-27.8 -11.5,-52.9 -30,-70.9 z" /><g
     id="g20"><path
       style="fill:#ffffff"
       id="path4"
       d="m 472.7,94.7 c -4.5,-4.2 -9.6,-5.6 -15.7,-5.6 -7.4,0 -11.6,2.3 -11.6,6.3 0,4.1 3.7,6.4 11.8,6.9 11.9,0.8 27.1,3.5 27.1,20.3 0,11.2 -9.1,20.8 -27.2,20.8 -10,0 -20,-1.7 -29.3,-11.3 l 7.7,-11.2 c 4.5,5 14.8,8.7 21.8,8.9 5.9,0.1 11.4,-3 11.4,-7.6 0,-4.4 -3.6,-6.2 -12.6,-6.7 -11.9,-0.9 -26.2,-5.3 -26.2,-19.6 0,-14.6 15.1,-19.8 26.7,-19.8 9.9,0 17.3,1.9 24.6,8.3 z" /><path
       style="fill:#ffffff"
       id="path6"
       d="m 581.7,133.2 c -7.3,7.2 -15,10 -24.4,10 -18.4,0 -33.6,-11 -33.6,-33.5 0,-22.5 15.3,-33.5 33.6,-33.5 9,0 15.9,2.6 22.9,9.4 L 570.3,96 c -3.7,-3.3 -8.3,-5 -12.7,-5 -10.5,0 -18.2,7.7 -18.2,18.7 0,12.1 8.2,18.5 18,18.5 5,0 10,-1.4 13.9,-5.3 z" /><path
       style="fill:#ffffff"
       id="path8"
       d="m 652.8,109.7 c 0,18.2 -12.5,33 -33,33 -20.5,0 -32.9,-14.8 -32.9,-33 0,-18.1 12.6,-33 32.7,-33 20.2,0 33.2,14.9 33.2,33 z m -50.2,0 c 0,9.6 5.8,18.6 17.2,18.6 11.4,0 17.2,-9 17.2,-18.6 0,-9.5 -6.7,-18.7 -17.2,-18.7 -11.3,-0.1 -17.2,9.2 -17.2,18.7 z" /><path
       style="fill:#ffffff"
       id="path10"
       d="m 680.7,60.6 c 0,12.2 -18.5,12.2 -18.5,0 0,-12.2 18.5,-12.2 18.5,0 z m -17.1,20.8 v 60.3 h 15.7 V 78.2 Z" /><path
       style="fill:#ffffff"
       id="path12"
       d="m 513.1,60.6 c 0,12.2 -18.5,12.2 -18.5,0 0,-12.2 18.5,-12.2 18.5,0 z M 496,81.4 v 60.3 h 15.7 V 78.2 Z" /><path
       style="fill:#ffffff"
       id="path14"
       d="m 314.8,78.1 c -8.2,0 -15.7,2.6 -21.4,11.6 -3.6,-8.7 -11.2,-11.8 -18.8,-11.8 -6,0 -13.7,2.3 -16.7,8.7 v -8 l -1,0.3 v 0 l -15,3.2 V 142 h 16 v -33.6 c 0,-8.3 4.8,-15.9 13.3,-15.9 8.6,0 12.7,7.6 12.7,15.9 V 142 h 16 v -33.6 c 0,-8.3 5.4,-15.7 13.9,-15.7 8.5,0 12.1,7.1 12.1,15.4 V 142 h 16 v -33.8 c 0,-19.1 -9.2,-30.1 -27.1,-30.1 z" /><path
       style="fill:#ffffff"
       id="path16"
       d="m 727.1,77.9 c -7.7,0 -13.2,3 -20.2,8.9 v -8.3 l -1.6,0.4 -0.2,-0.1 -14.2,3.2 v 60 h 16 v -34.3 c 0,-8.6 7,-15.5 15.9,-15.5 10,0 15.1,7.3 15.1,16.9 V 142 h 16 V 109 C 753.9,89.1 742,77.9 727.1,77.9 Z" /><path
       style="fill:#ffffff"
       id="path18"
       d="m 400.9,80.7 v 29.1 c 0,9.6 -6.8,17.7 -16.4,17.7 -10,0 -15.6,-7.3 -15.6,-16.9 V 77.5 l -16,3.2 v 30 c 0,19.6 11.5,31.1 26.6,31.1 8.6,0 15.4,-2.9 21.4,-9 v 9.2 h 14 V 77.5 Z" /></g></svg>