<?xml version="1.0" encoding="utf-8"?>
<!-- Generator: Adobe Illustrator 18.0.0, SVG Export Plug-In . SVG Version: 6.00 Build 0)  -->
<!DOCTYPE svg PUBLIC "-//W3C//DTD SVG 1.1//EN" "http://www.w3.org/Graphics/SVG/1.1/DTD/svg11.dtd">
<svg version="1.1" id="Layer_1" xmlns="http://www.w3.org/2000/svg" xmlns:xlink="http://www.w3.org/1999/xlink" x="0px" y="0px"
	 viewBox="0 0 753.9 198" enable-background="new 0 0 753.9 198" xml:space="preserve">
<path fill="#F2C455" d="M115.4,1.4C110,0.5,104.6,0,99,0C44.3,0,0,44.3,0,99c0,21,6.6,40.4,17.7,56.5c6.8-10,22.5-16.9,40.7-16.9
	c12.5,0,23.8,3.3,31.9,8.6L115.4,1.4z M168,28.1c17.1,37.8,2.1,58,2.1,58c-11.6-34.9-45.2-40-45.2-40s-22.1,119.1-22.1,120.6
	c0,12.9-13.7,23.8-32.3,27.1c9,2.7,18.6,4.2,28.5,4.2c54.7,0,99-44.3,99-99C198,71.2,186.5,46.1,168,28.1z"/>
<g>
	<path fill="#FFFFFF" d="M472.7,94.7c-4.5-4.2-9.6-5.6-15.7-5.6c-7.4,0-11.6,2.3-11.6,6.3c0,4.1,3.7,6.4,11.8,6.9
		c11.9,0.8,27.1,3.5,27.1,20.3c0,11.2-9.1,20.8-27.2,20.8c-10,0-20-1.7-29.3-11.3l7.7-11.2c4.5,5,14.8,8.7,21.8,8.9
		c5.9,0.1,11.4-3,11.4-7.6c0-4.4-3.6-6.2-12.6-6.7c-11.9-0.9-26.2-5.3-26.2-19.6c0-14.6,15.1-19.8,26.7-19.8
		c9.9,0,17.3,1.9,24.6,8.3L472.7,94.7z"/>
	<path fill="#FFFFFF" d="M581.7,133.2c-7.3,7.2-15,10-24.4,10c-18.4,0-33.6-11-33.6-33.5s15.3-33.5,33.6-33.5c9,0,15.9,2.6,22.9,9.4
		L570.3,96c-3.7-3.3-8.3-5-12.7-5c-10.5,0-18.2,7.7-18.2,18.7c0,12.1,8.2,18.5,18,18.5c5,0,10-1.4,13.9-5.3L581.7,133.2z"/>
	<path fill="#FFFFFF" d="M652.8,109.7c0,18.2-12.5,33-33,33s-32.9-14.8-32.9-33c0-18.1,12.6-33,32.7-33
		C639.8,76.7,652.8,91.6,652.8,109.7z M602.6,109.7c0,9.6,5.8,18.6,17.2,18.6c11.4,0,17.2-9,17.2-18.6c0-9.5-6.7-18.7-17.2-18.7
		C608.5,90.9,602.6,100.2,602.6,109.7z"/>
	<path fill="#FFFFFF" d="M680.7,60.6c0,12.2-18.5,12.2-18.5,0C662.2,48.4,680.7,48.4,680.7,60.6z M663.6,81.4v60.3h15.7V78.2
		L663.6,81.4z"/>
	<path fill="#FFFFFF" d="M513.1,60.6c0,12.2-18.5,12.2-18.5,0C494.6,48.4,513.1,48.4,513.1,60.6z M496,81.4v60.3h15.7V78.2L496,81.4
		z"/>
	<path fill="#FFFFFF" d="M314.8,78.1c-8.2,0-15.7,2.6-21.4,11.6c-3.6-8.7-11.2-11.8-18.8-11.8c-6,0-13.7,2.3-16.7,8.7v-8l-1,0.3v0
		l-15,3.2V142h16v-33.6c0-8.3,4.8-15.9,13.3-15.9c8.6,0,12.7,7.6,12.7,15.9V142h16v-33.6c0-8.3,5.4-15.7,13.9-15.7
		c8.5,0,12.1,7.1,12.1,15.4V142h16v-33.8C341.9,89.1,332.7,78.1,314.8,78.1z"/>
	<path fill="#FFFFFF" d="M727.1,77.9c-7.7,0-13.2,3-20.2,8.9v-8.3l-1.6,0.4l-0.2-0.1L690.9,82v60h16v-34.3c0-8.6,7-15.5,15.9-15.5
		c10,0,15.1,7.3,15.1,16.9V142h16v-33C753.9,89.1,742,77.9,727.1,77.9z"/>
	<path fill="#FFFFFF" d="M400.9,80.7v29.1c0,9.6-6.8,17.7-16.4,17.7c-10,0-15.6-7.3-15.6-16.9V77.5l-16,3.2v30
		c0,19.6,11.5,31.1,26.6,31.1c8.6,0,15.4-2.9,21.4-9v9.2h14V77.5L400.9,80.7z"/>
</g>
</svg>
