<svg xmlns="http://www.w3.org/2000/svg" viewBox="0 0 753.9 198">
  <path fill="#F2C455" d="M115.4 1.4C110 .5 104.6 0 99 0 44.3 0 0 44.3 0 99c0 21 6.6 40.4 17.7 56.5 6.8-10 22.5-16.9 40.7-16.9 12.5 0 23.8 3.3 31.9 8.6L115.4 1.4zM168 28.1c17.1 37.8 2.1 58 2.1 58-11.6-34.9-45.2-40-45.2-40s-22.1 119.1-22.1 120.6c0 12.9-13.7 23.8-32.3 27.1 9 2.7 18.6 4.2 28.5 4.2 54.7 0 99-44.3 99-99 0-27.8-11.5-52.9-30-70.9z"/>
  <path fill="#FFF" d="M472.7 94.7c-4.5-4.2-9.6-5.6-15.7-5.6-7.4 0-11.6 2.3-11.6 6.3 0 4.1 3.7 6.4 11.8 6.9 11.9.8 27.1 3.5 27.1 20.3 0 11.2-9.1 20.8-27.2 20.8-10 0-20-1.7-29.3-11.3l7.7-11.2c4.5 5 14.8 8.7 21.8 8.9 5.9.1 11.4-3 11.4-7.6 0-4.4-3.6-6.2-12.6-6.7-11.9-.9-26.2-5.3-26.2-19.6 0-14.6 15.1-19.8 26.7-19.8 9.9 0 17.3 1.9 24.6 8.3l-8.5 10.3zm109 38.5c-7.3 7.2-15 10-24.4 10-18.4 0-33.6-11-33.6-33.5s15.3-33.5 33.6-33.5c9 0 15.9 2.6 22.9 9.4L570.3 96c-3.7-3.3-8.3-5-12.7-5-10.5 0-18.2 7.7-18.2 18.7 0 12.1 8.2 18.5 18 18.5 5 0 10-1.4 13.9-5.3l10.4 10.3zm71.1-23.5c0 18.2-12.5 33-33 33s-32.9-14.8-32.9-33c0-18.1 12.6-33 32.7-33 20.2 0 33.2 14.9 33.2 33zm-50.2 0c0 9.6 5.8 18.6 17.2 18.6 11.4 0 17.2-9 17.2-18.6 0-9.5-6.7-18.7-17.2-18.7-11.3-.1-17.2 9.2-17.2 18.7zm78.1-49.1c0 12.2-18.5 12.2-18.5 0s18.5-12.2 18.5 0zm-17.1 20.8v60.3h15.7V78.2l-15.7 3.2zM513.1 60.6c0 12.2-18.5 12.2-18.5 0s18.5-12.2 18.5 0zM496 81.4v60.3h15.7V78.2L496 81.4zm-181.2-3.3c-8.2 0-15.7 2.6-21.4 11.6-3.6-8.7-11.2-11.8-18.8-11.8-6 0-13.7 2.3-16.7 8.7v-8l-1 .3-15 3.2V142h16v-33.6c0-8.3 4.8-15.9 13.3-15.9 8.6 0 12.7 7.6 12.7 15.9V142h16v-33.6c0-8.3 5.4-15.7 13.9-15.7s12.1 7.1 12.1 15.4V142h16v-33.8c0-19.1-9.2-30.1-27.1-30.1zm412.3-.2c-7.7 0-13.2 3-20.2 8.9v-8.3l-1.6.4-.2-.1-14.2 3.2v60h16v-34.3c0-8.6 7-15.5 15.9-15.5 10 0 15.1 7.3 15.1 16.9V142h16v-33c0-19.9-11.9-31.1-26.8-31.1zm-326.2 2.8v29.1c0 9.6-6.8 17.7-16.4 17.7-10 0-15.6-7.3-15.6-16.9V77.5l-16 3.2v30c0 19.6 11.5 31.1 26.6 31.1 8.6 0 15.4-2.9 21.4-9v9.2h14V77.5l-14 3.2z"/>
</svg>
