<?xml version="1.0" encoding="UTF-8"?>
<svg width="385px" height="314px" viewBox="0 0 385 314" version="1.1" xmlns="http://www.w3.org/2000/svg" xmlns:xlink="http://www.w3.org/1999/xlink">
    <!-- Generator: Sketch 48.1 (47250) - http://www.bohemiancoding.com/sketch -->
    <title>Group</title>
    <desc>Created with Sketch.</desc>
    <defs></defs>
    <g id="Icon" stroke="none" stroke-width="1" fill="none" fill-rule="evenodd" transform="translate(-64.000000, -99.000000)">
        <g id="Group" transform="translate(64.000000, 99.000000)">
            <rect id="Path" fill="#FFC300" x="0" y="0" width="385" height="284" rx="60"></rect>
            <g id="musicoin" transform="translate(0.000000, 30.000000)" fill="#171717" fill-rule="nonzero">
                <path d="M0,59.9904439 C0,26.8586366 26.8621454,0 59.9977124,0 L325.002288,0 C358.138109,0 385,26.8619283 385,59.9904439 L385,224.009556 C385,257.141363 358.137855,284 325.002288,284 L59.9977124,284 C26.8618908,284 0,257.138072 0,224.009556 L0,59.9904439 Z M208.309906,48.4117782 C203.104205,47.5441614 197.898505,47.0621521 192.5,47.0621521 C139.768179,47.0621521 97.0621521,89.768179 97.0621521,142.5 C97.0621521,162.744392 103.424675,181.446354 114.125282,196.967055 C120.680609,187.326868 135.815702,180.675139 153.360842,180.675139 C165.411075,180.675139 176.304486,183.856401 184.113038,188.9657 L208.309906,48.4117782 Z M259.017288,74.1510766 C275.502007,110.590982 261.041727,130.064159 261.041727,130.064159 C249.859111,96.4199078 217.468083,91.5034126 217.468083,91.5034126 C217.468083,91.5034126 196.163271,206.318036 196.163271,207.764064 C196.163271,220.199904 182.956215,230.707708 165.025468,233.88897 C173.701636,236.49182 182.956215,237.937848 192.5,237.937848 C245.231821,237.937848 287.937848,195.231821 287.937848,142.5 C287.937848,115.700281 276.851633,91.5034126 259.017288,74.1510766 Z" id="Shape"></path>
            </g>
            <rect id="Rectangle" fill="#FFC300" x="0" y="158" width="114" height="29"></rect>
            <rect id="Rectangle" fill="#FFC300" x="271" y="158" width="114" height="29"></rect>
        </g>
    </g>
</svg>