<?xml version="1.0" encoding="UTF-8" standalone="no"?>
<!-- Created with Inkscape (http://www.inkscape.org/) -->

<svg
   xmlns:dc="http://purl.org/dc/elements/1.1/"
   xmlns:cc="http://creativecommons.org/ns#"
   xmlns:rdf="http://www.w3.org/1999/02/22-rdf-syntax-ns#"
   xmlns:svg="http://www.w3.org/2000/svg"
   xmlns="http://www.w3.org/2000/svg"
   xmlns:sodipodi="http://sodipodi.sourceforge.net/DTD/sodipodi-0.dtd"
   xmlns:inkscape="http://www.inkscape.org/namespaces/inkscape"
   width="400"
   height="400"
   id="svg3044"
   version="1.1"
   inkscape:version="0.48.4 r9939"
   sodipodi:docname="logo_musicoin.svg">
  <defs
     id="defs3046" />
  <sodipodi:namedview
     id="base"
     pagecolor="#ffffff"
     bordercolor="#666666"
     borderopacity="1.0"
     inkscape:pageopacity="0.0"
     inkscape:pageshadow="2"
     inkscape:zoom="0.98994949"
     inkscape:cx="25.569975"
     inkscape:cy="200.40198"
     inkscape:document-units="px"
     inkscape:current-layer="layer1"
     showgrid="false"
     inkscape:window-width="1366"
     inkscape:window-height="715"
     inkscape:window-x="0"
     inkscape:window-y="30"
     inkscape:window-maximized="1" />
  <metadata
     id="metadata3049">
    <rdf:RDF>
      <cc:Work
         rdf:about="">
        <dc:format>image/svg+xml</dc:format>
        <dc:type
           rdf:resource="http://purl.org/dc/dcmitype/StillImage" />
        <dc:title />
      </cc:Work>
    </rdf:RDF>
  </metadata>
  <g
     inkscape:label="Layer 1"
     inkscape:groupmode="layer"
     id="layer1"
     transform="translate(0,-652.36218)">
    <g
       id="g2991"
       transform="matrix(0.79850485,0,0,0.79850485,46.108591,157.05798)"
       style="opacity:0.13612565">
      <g
         transform="matrix(0.46058463,0,0,0.46058463,53.233076,501.85994)"
         id="text3766"
         style="font-size:398.04547119000000066px;font-style:normal;font-variant:normal;font-weight:normal;font-stretch:normal;text-align:start;line-height:125%;letter-spacing:0px;word-spacing:0px;writing-mode:lr-tb;text-anchor:start;fill:#000000;fill-opacity:1;stroke:none;font-family:Monoton;-inkscape-font-specification:Monoton">
        <path
           inkscape:connector-curvature="0"
           id="path3074"
           d="m 116.95365,765.94913 0,174.92233 -13.99378,0 0,-174.92233 c -1.9e-4,-3.75741 -0.64805,-6.93192 -1.94359,-9.52355 -1.166325,-2.72082 -2.721188,-4.79397 -4.664592,-6.21946 -1.943755,-1.4251 -4.535195,-2.52646 -7.774325,-3.30408 -3.109896,-0.90681 -6.154837,-1.4251 -9.134833,-1.55487 -2.980314,-0.25895 -6.673115,-0.38852 -11.078414,-0.38872 -4.405595,2e-4 -8.098396,0.12977 -11.078414,0.38872 -2.980292,0.12977 -6.090019,0.64806 -9.32919,1.55487 -3.109855,0.77762 -5.636509,1.87898 -7.579968,3.30408 -1.9437,1.42549 -3.563349,3.49864 -4.858953,6.21946 -1.166264,2.59163 -1.749337,5.76614 -1.749224,9.52355 l 0,174.92233 -13.993786,0 0,-174.92233 c -9.9e-5,-23.32277 16.196396,-34.98425 48.589535,-34.98446 32.392844,2.1e-4 48.589334,11.66169 48.589534,34.98446 m 27.98757,0 0,174.92233 -13.99378,0 0,-174.92233 c -2.1e-4,-16.45546 -5.83095,-28.70001 -17.49224,-36.73368 -11.53209,-8.16283 -26.562441,-12.24434 -45.091084,-12.24457 -18.528939,2.3e-4 -33.624073,4.08174 -45.285446,12.24457 -11.532008,8.03367 -17.2979606,20.27822 -17.2978749,36.73368 l 0,174.92233 -13.9937861,0 0,-174.92233 c -7.17e-5,-13.60488 3.4983713,-25.26635 10.4953396,-34.98446 6.9968038,-9.71769 16.1316274,-16.77936 27.4044974,-21.18504 11.402224,-4.53479 24.294634,-6.8023 38.67727,-6.80253 14.38234,2.3e-4 27.209964,2.26774 38.482914,6.80253 11.40214,4.40568 20.60175,11.46735 27.59885,21.18504 6.99668,9.71811 10.49512,21.37958 10.49534,34.98446 m 27.98758,0 0,174.92233 -13.99379,0 0,-174.92233 c -2.4e-4,-12.17959 -2.39732,-23.1932 -7.19125,-33.04088 -4.66482,-9.84726 -11.14342,-17.94551 -19.43582,-24.29477 -8.29281,-6.34879 -17.88114,-11.20774 -28.765,-14.57686 -10.884229,-3.36862 -22.610492,-5.05306 -35.178824,-5.05331 -12.568629,2.5e-4 -24.294891,1.68469 -35.178823,5.05331 -10.884158,3.36912 -20.472484,8.22807 -28.7650049,14.57686 -8.29269,6.34926 -14.8360741,14.44751 -19.6301721,24.29477 -4.664655,9.84768 -6.996951,20.86129 -6.996893,33.04088 l 0,174.92233 -13.993786,0 0,-174.92233 c -4.4e-5,-14.12317 2.720967,-26.95079 8.163042,-38.48291 5.571542,-11.53169 13.086716,-21.05523 22.545544,-28.57064 9.4586789,-7.64451 20.537082,-13.54003 33.235242,-17.6866 12.697945,-4.14604 26.238215,-6.21919 40.620851,-6.21946 14.38234,2.7e-4 27.92261,2.07342 40.620854,6.21946 12.69786,4.14657 23.77626,10.04209 33.23524,17.6866 9.45853,7.51541 16.90892,17.03895 22.35119,28.57064 5.57135,11.53212 8.35714,24.35974 8.3574,38.48291 m 27.98757,174.92233 -13.99379,0 0,-174.92233 c -2.7e-4,-14.12317 -3.17478,-27.66344 -9.52355,-40.62085 -6.21971,-12.95698 -14.64189,-24.10017 -25.26656,-33.4296 -10.62513,-9.4585 -23.25839,-16.97368 -37.89983,-22.54554 -14.641829,-5.57132 -29.93132,-8.35712 -45.868524,-8.3574 -21.89781,2.8e-4 -41.787106,4.14658 -59.6679488,12.43892 -17.7514477,8.1633 -32.0043632,20.34306 -42.7587912,36.53933 -10.754518,16.06715 -16.131755,34.72552 -16.131725,55.97514 l 0,174.92233 -13.993786,0 0,-174.92233 c -1.6e-5,-17.88075 3.498427,-34.33639 10.495339,-49.36696 6.99686,-15.03013 16.455613,-27.59861 28.376289,-37.70548 12.050138,-10.10635 26.1086958,-17.94546 42.175716,-23.51734 16.196399,-5.57131 33.364684,-8.3571 51.504907,-8.3574 32.133704,3e-4 59.991674,8.09854 83.574004,24.29477 23.58186,-16.19623 51.43983,-24.29447 83.574,-24.29477 18.13976,3e-4 35.24326,2.78609 51.31055,8.3574 16.19612,5.57188 30.25468,13.41099 42.17571,23.51734 12.04979,10.10687 21.57333,22.67535 28.57065,37.70548 6.99645,15.03057 10.49489,31.48621 10.49534,49.36696 l 0,174.92233 -13.99379,0 0,-174.92233 c -4.3e-4,-21.12005 -5.37767,-39.71363 -16.13172,-55.78078 -10.75489,-16.19627 -25.0726,-28.44082 -42.95315,-36.73369 -17.75174,-8.29234 -37.57625,-12.43864 -59.47359,-12.43892 -27.46957,2.8e-4 -51.44039,6.47888 -71.91252,19.43581 2.97992,2.5917 6.284,5.96057 9.91227,10.10663 17.75111,-10.36551 38.41783,-15.54839 62.00025,-15.54866 14.38217,2.7e-4 27.92244,2.07342 40.62085,6.21946 12.69769,4.14657 23.7761,10.04209 33.23524,17.6866 9.45836,7.51541 16.90875,17.03895 22.35119,28.57064 5.57118,11.53212 8.35698,24.35974 8.3574,38.48291 l 0,174.92233 -13.99379,0 0,-174.92233 c -4.1e-4,-12.17959 -2.39749,-23.1932 -7.19125,-33.04088 -4.66499,-9.84726 -11.14359,-17.94551 -19.43581,-24.29477 -8.29299,-6.34879 -17.88132,-11.20774 -28.76501,-14.57686 -10.8844,-3.36862 -22.61066,-5.05306 -35.17882,-5.05331 -20.60226,2.5e-4 -38.41841,4.21134 -53.44849,12.63328 2.33203,3.62825 4.66433,7.64498 6.99689,12.0502 12.69778,-7.12623 28.18163,-10.68946 46.4516,-10.68969 14.38217,2.3e-4 27.20979,2.26774 38.48291,6.80253 11.40198,4.40568 20.60159,11.46735 27.59885,21.18504 6.99651,9.71811 10.49495,21.37958 10.49534,34.98446 l 0,174.92233 -13.99378,0 0,-174.92233 c -3.8e-4,-16.45546 -5.83112,-28.70001 -17.49223,-36.73368 -11.53227,-8.16283 -26.56262,-12.24434 -45.09109,-12.24457 -16.84467,2.3e-4 -30.51452,3.10995 -41.00957,9.32919 1.68416,4.92395 2.97988,9.58854 3.88716,13.99379 8.16276,-6.21925 20.53688,-9.32898 37.12241,-9.32919 32.39267,2.1e-4 48.58917,11.66169 48.58953,34.98446 l 0,174.92233 -13.99378,0 0,-174.92233 c -3.5e-4,-3.75741 -0.64821,-6.93192 -1.94359,-9.52355 -1.16649,-2.72082 -2.72135,-4.79397 -4.66459,-6.21946 -1.94392,-1.4251 -4.53536,-2.52646 -7.77433,-3.30408 -3.11006,-0.90681 -6.155,-1.4251 -9.13483,-1.55487 -2.98048,-0.25895 -6.67328,-0.38852 -11.07841,-0.38872 -4.40577,2e-4 -8.09857,0.12977 -11.07842,0.38872 -2.98046,0.12977 -6.09018,0.64806 -9.32919,1.55487 -3.11002,0.77762 -5.63667,1.87898 -7.57997,3.30408 -1.94386,1.42549 -3.56351,3.49864 -4.85895,6.21946 -1.16643,2.59163 -1.7495,5.76614 -1.74922,9.52355 l 0,174.92233" />
        <path
           inkscape:connector-curvature="0"
           id="path3076"
           d="m 604.40386,757.39738 -11.27277,8.55175 c -11.27297,-13.99359 -25.78503,-20.99048 -43.53623,-20.99068 -15.41923,2e-4 -28.63557,5.50701 -39.64906,16.52045 -10.88417,10.88422 -16.32619,24.03578 -16.32608,39.4547 -1.1e-4,15.4192 5.44191,28.63554 16.32608,39.64906 11.01349,10.88414 24.22983,16.32617 39.64906,16.32608 8.68116,9e-5 16.77941,-1.87871 24.29477,-5.63638 7.64456,-3.7575 14.12316,-8.94038 19.43581,-15.54865 l 10.88406,9.13483 c -6.47882,8.16313 -14.51228,14.57694 -24.10041,19.24145 -9.58852,4.5351 -19.75992,6.80261 -30.51423,6.80254 -19.30638,7e-5 -35.82681,-6.80246 -49.56132,-20.40761 -13.60517,-13.73453 -20.4077,-30.25496 -20.40761,-49.56132 -9e-5,-19.30608 6.80244,-35.76172 20.40761,-49.36697 13.73451,-13.73444 30.25494,-20.60175 49.56132,-20.60196 10.88388,2.1e-4 21.12007,2.39729 30.70859,7.19125 9.58813,4.66479 17.62159,11.07861 24.10041,19.24146 m 21.76811,-17.49224 -11.07841,8.55176 c -7.77455,-9.84728 -17.42766,-17.55681 -28.95937,-23.12862 -11.40253,-5.57138 -23.5823,-8.35717 -36.53933,-8.3574 -23.19354,2.3e-4 -43.01805,8.22805 -59.47359,24.68349 -16.32617,16.45583 -24.4892,36.21556 -24.48912,59.27923 -8e-5,23.06395 8.16295,42.82367 24.48912,59.27923 16.45554,16.45572 36.28005,24.68354 59.47359,24.68349 12.95703,5e-5 25.20159,-2.78575 36.73369,-8.3574 11.53171,-5.70111 21.18482,-13.47542 28.95936,-23.32298 l 10.6897,8.94047 c -9.07028,11.40241 -20.27825,20.40767 -33.62396,27.01578 -13.34612,6.47865 -27.59903,9.71795 -42.75879,9.71791 -17.75152,4e-5 -34.14237,-4.34062 -49.17261,-13.02199 -15.03046,-8.81084 -26.95108,-20.73146 -35.76189,-35.7619 -8.68141,-15.03026 -13.02207,-31.42111 -13.022,-49.17261 -7e-5,-17.75122 4.34059,-34.14207 13.022,-49.17261 8.81081,-15.03016 20.73143,-26.88599 35.76189,-35.56754 15.03024,-8.81067 31.42109,-13.21612 49.17261,-13.21635 15.15976,2.3e-4 29.41267,3.30432 42.75879,9.91226 13.47528,6.47883 24.74804,15.48408 33.81832,27.01578 m 21.96247,-17.49223 -10.88406,8.74612 c -10.49558,-13.08656 -23.38799,-23.38753 -38.67727,-30.90295 -15.2897,-7.51493 -31.61577,-11.27252 -48.97825,-11.27277 -15.16008,2.5e-4 -29.67214,2.98041 -43.53622,8.94047 -13.73475,5.83099 -25.65537,13.79966 -35.7619,23.90606 -9.97712,9.97726 -17.9458,21.89788 -23.90605,35.76189 -5.8308,13.73482 -8.74617,28.18209 -8.74612,43.34187 -5e-5,15.16006 2.91532,29.67212 8.74612,43.53622 5.96025,13.73473 13.92893,25.65535 23.90605,35.7619 10.10653,9.9771 22.02715,17.94578 35.7619,23.90605 13.86408,5.83078 28.37614,8.74615 43.53622,8.74612 17.36248,3e-5 33.68855,-3.75756 48.97825,-11.27277 15.28928,-7.51514 28.18169,-17.81611 38.67727,-30.90295 l 10.49534,9.13483 c -11.79131,14.6417 -26.23858,26.1736 -43.34186,34.59575 -17.10372,8.29264 -35.37337,12.43894 -54.809,12.43892 -17.10366,2e-5 -33.42973,-3.30407 -48.97825,-9.91226 -15.54875,-6.73772 -28.95945,-15.67819 -40.23213,-26.82142 -11.14327,-11.27271 -20.08373,-24.68341 -26.82143,-40.23214 -6.60822,-15.54854 -9.9123,-31.87461 -9.91226,-48.97825 -4e-5,-17.10336 3.30404,-33.42943 9.91226,-48.97825 6.7377,-15.54845 15.67816,-28.89436 26.82143,-40.03778 11.27268,-11.27253 24.68338,-20.213 40.23213,-26.82142 15.54852,-6.73749 31.87459,-10.10636 48.97825,-10.10663 19.56521,2.7e-4 37.89964,4.21136 55.00336,12.63328 17.23285,8.42243 31.74491,20.01912 43.53622,34.79011 m 21.76811,-17.49223 -11.27277,8.3574 c -13.08704,-16.19627 -29.15397,-28.95911 -48.20082,-38.28856 -18.91773,-9.32891 -39.19574,-13.9935 -60.8341,-13.99378 -18.91767,2.8e-4 -37.05774,3.69308 -54.42028,11.07841 -17.23318,7.38587 -32.13395,17.36291 -44.70237,29.93116 -12.43897,12.43914 -22.35123,27.33992 -29.73679,44.70237 -7.38564,17.23326 -11.07844,35.30855 -11.07842,54.22592 -2e-5,18.91765 3.69278,37.05772 11.07842,54.42028 7.38556,17.23315 17.29782,32.13393 29.73679,44.70237 12.56842,12.43895 27.46919,22.35121 44.70237,29.7368 17.36254,7.38561 35.50261,11.07841 54.42028,11.07841 21.63836,0 41.91637,-4.66459 60.8341,-13.99379 19.04685,-9.32916 35.11378,-22.092 48.20082,-38.28855 l 11.07841,8.55176 c -14.38277,17.88097 -32.06934,32.00432 -53.05977,42.37007 -20.86132,10.23619 -43.21248,15.35428 -67.05356,15.3543 -20.86125,-2e-5 -40.81533,-4.08153 -59.8623,-12.24457 -18.91762,-8.16303 -35.24368,-19.11186 -48.97826,-32.84652 -13.73468,-13.7346 -24.68351,-30.06067 -32.84652,-48.97825 -8.16306,-19.047 -12.24457,-39.00108 -12.24456,-59.86231 -1e-5,-20.86095 4.0815,-40.75024 12.24456,-59.66795 8.16301,-19.04688 19.11184,-35.43773 32.84652,-49.17261 13.73458,-13.73438 30.06064,-24.68321 48.97826,-32.84653 19.04697,-8.16275 39.00105,-12.24426 59.8623,-12.24456 23.84108,3e-4 46.25703,5.18317 67.24792,15.54865 20.99043,10.23647 38.677,24.35981 53.05977,42.37008" />
      </g>
      <g
         transform="matrix(0.14292724,0,0,0.14292724,287.61479,722.37144)"
         id="g3784">
        <g
           id="g3781">
          <path
             sodipodi:type="arc"
             style="fill:#4d4d4d;fill-opacity:1;stroke:#000000;stroke-width:14.10000038000000089;stroke-miterlimit:4;stroke-opacity:1;stroke-dasharray:none"
             id="path3772"
             sodipodi:cx="-761.05511"
             sodipodi:cy="890.92798"
             sodipodi:rx="236.36864"
             sodipodi:ry="236.36864"
             d="m -524.68648,890.92798 c 0,130.54282 -105.82584,236.36862 -236.36863,236.36862 -130.5428,0 -236.36864,-105.8258 -236.36864,-236.36862 0,-130.5428 105.82584,-236.36864 236.36864,-236.36864 130.54279,0 236.36863,105.82584 236.36863,236.36864 z"
             transform="matrix(0.68309511,0,0,0.68309511,650.34446,430.50269)" />
        </g>
        <path
           sodipodi:type="arc"
           style="fill:#97703f;fill-opacity:1;stroke:#090909;stroke-width:79.52506255999999496;stroke-miterlimit:4;stroke-opacity:1;stroke-dasharray:none"
           id="path3774"
           sodipodi:cx="-761.05511"
           sodipodi:cy="890.92798"
           sodipodi:rx="236.36864"
           sodipodi:ry="236.36864"
           d="m -524.68648,890.92798 c 0,130.54282 -105.82584,236.36862 -236.36863,236.36862 -130.5428,0 -236.36864,-105.8258 -236.36864,-236.36862 0,-130.5428 105.82584,-236.36864 236.36864,-236.36864 130.54279,0 236.36863,105.82584 236.36863,236.36864 z"
           transform="matrix(0.23192146,0,0,0.23192146,306.97645,832.46591)" />
        <path
           transform="matrix(0.02491238,0,0,0.02491238,149.43112,1016.8961)"
           d="m -524.68648,890.92798 c 0,130.54282 -105.82584,236.36862 -236.36863,236.36862 -130.5428,0 -236.36864,-105.8258 -236.36864,-236.36862 0,-130.5428 105.82584,-236.36864 236.36864,-236.36864 130.54279,0 236.36863,105.82584 236.36863,236.36864 z"
           sodipodi:ry="236.36864"
           sodipodi:rx="236.36864"
           sodipodi:cy="890.92798"
           sodipodi:cx="-761.05511"
           id="path3776"
           style="fill:#e3dbdb;fill-opacity:1;stroke:#2e2e2e;stroke-width:0;stroke-miterlimit:4;stroke-opacity:1;stroke-dasharray:none"
           sodipodi:type="arc" />
      </g>
    </g>
  </g>
</svg>
