<svg xmlns="http://www.w3.org/2000/svg" viewBox="0 0 512 512">
  <path fill="#bbb6eb" d="M512 256a256 256 0 1 1-512 0 256 256 0 1 1 512 0z" color="#000"/>
  <path fill="#f55" d="M467.3 400.5L256 347.4 44.7 400.5C90.8 467.8 168.23 512 256 512s165.2-44.2 211.3-111.5z" color="#000"/>
  <path d="M256.02 416.75c38.78 0 70.18-23.3 70.18-52.04V230.4H185.8v134.3c0 28.75 31.45 52.05 70.22 52.05z" fill-opacity=".96" fill="#d8834a" color="#000"/>
  <path opacity=".96" d="M256 82.53c-66.1 0-117.7 34.82-117.7 115.16 0 31.6 19.58 91.62 34.42 115.05 20.7 32.7 43.2 60.7 83.28 60.7s62.57-28 83.28-60.7c14.84-23.43 34.4-83.46 34.4-115.1C373.68 117.33 322.1 82.5 256 82.5z" fill="#e98e57" color="#000"/>
</svg>
