<?xml version="1.0" encoding="UTF-8" standalone="no"?>
<!-- Created with Inkscape (http://www.inkscape.org/) -->
<svg xmlns:rdf="http://www.w3.org/1999/02/22-rdf-syntax-ns#" xmlns="http://www.w3.org/2000/svg" version="1.1" xmlns:cc="http://creativecommons.org/ns#" xmlns:dc="http://purl.org/dc/elements/1.1/" viewBox="0 0 744 744">
 <metadata>
  <rdf:RDF>
   <cc:Work rdf:about="">
    <dc:format>image/svg+xml</dc:format>
    <dc:type rdf:resource="http://purl.org/dc/dcmitype/StillImage"/>
    <dc:title/>
   </cc:Work>
  </rdf:RDF>
 </metadata>
 <g transform="translate(0,-308.36218)">
  <g transform="matrix(0.93640581,0,0,0.93640581,23.613145,187.63715)">
   <g>
    <path style="baseline-shift:baseline;block-progression:tb;color:#000000;direction:ltr;text-indent:0;text-align:start;enable-background:accumulate;text-transform:none;" fill="#d45500" d="m372.062,166.75c-198.294,0-359.438,161.144-359.438,359.438,0,177.273,128.589,324.889,297.719,354.156l12.375,2.125,6.282-10.875,264.719-458.469,14.656-25.406-29.281-1.563-225.969-12.187,45.749,56.578,138.883,7.481-233.476,404.441c-146.063-31.133-255.656-160.715-255.656-316.281,0-178.838,144.6-323.438,323.437-323.438z"/>
    <path style="baseline-shift:baseline;block-progression:tb;color:#000000;direction:ltr;text-indent:0;text-align:start;enable-background:accumulate;text-transform:none;" fill="#006680" d="m372.031,885.625c198.294,0,359.438-161.144,359.438-359.438,0-177.273-128.589-324.889-297.719-354.156l-12.375-2.125-6.28125,10.875-264.719,458.469-14.656,25.406,29.281,1.563,225.969,12.187-45.749-56.578-138.883-7.48,233.475-404.442c146.064,31.1324,255.656,160.714,255.656,316.281,0,178.838-144.6,323.438-323.438,323.438z"/>
   </g>
  </g>
 </g>
</svg>
